HIERARCHY
ROOT Hips
{
	OFFSET 0.000000 0.000000 0.000000
	CHANNELS 6 Xposition Yposition Zposition Zrotation Yrotation Xrotation 
	JOINT LHipJoint
	{
		OFFSET 0.000000 0.000000 0.000000
		CHANNELS 3 Zrotation Yrotation Xrotation
		JOINT LeftUpLeg
		{
			OFFSET 1.363060 -1.794630 0.839290
			CHANNELS 3 Zrotation Yrotation Xrotation
			JOINT LeftLeg
			{
				OFFSET 2.448110 -6.726130 0.000000
				CHANNELS 3 Zrotation Yrotation Xrotation
				JOINT LeftFoot
				{
					OFFSET 2.562200 -7.039590 0.000000
					CHANNELS 3 Zrotation Yrotation Xrotation
					JOINT LeftToeBase
					{
						OFFSET 0.157640 -0.433110 2.322550
						CHANNELS 3 Zrotation Yrotation Xrotation
						End Site
						{
							OFFSET 0.000000 0.000000 0.000000
						}
					}
				}
			}
		}
	}
	JOINT RHipJoint
	{
		OFFSET 0.000000 0.000000 0.000000
		CHANNELS 3 Zrotation Yrotation Xrotation
		JOINT RightUpLeg
		{
			OFFSET -1.305520 -1.794630 0.839290
			CHANNELS 3 Zrotation Yrotation Xrotation
			JOINT RightLeg
			{
				OFFSET -2.542530 -6.985550 0.000000
				CHANNELS 3 Zrotation Yrotation Xrotation
				JOINT RightFoot
				{
					OFFSET -2.568260 -7.056230 0.000000
					CHANNELS 3 Zrotation Yrotation Xrotation
					JOINT RightToeBase
					{
						OFFSET -0.164730 -0.452590 2.363150
						CHANNELS 3 Zrotation Yrotation Xrotation
						End Site
						{
							OFFSET 0.000000 0.000000 0.000000
						}
					}
				}
			}
		}
	}
	JOINT LowerBack
	{
		OFFSET 0.000000 0.000000 0.000000
		CHANNELS 3 Zrotation Yrotation Xrotation
		JOINT Spine
		{
			OFFSET 0.028270 2.035590 -0.193380
			CHANNELS 3 Zrotation Yrotation Xrotation
			JOINT Spine1
			{
				OFFSET 0.056720 2.048850 -0.042750
				CHANNELS 3 Zrotation Yrotation Xrotation
				JOINT Neck
				{
					OFFSET 0.000000 0.000000 0.000000
					CHANNELS 3 Zrotation Yrotation Xrotation
					JOINT Neck1
					{
						OFFSET -0.054170 1.746240 0.172020
						CHANNELS 3 Zrotation Yrotation Xrotation
						JOINT Head
						{
							OFFSET 0.104070 1.761360 -0.123970
							CHANNELS 3 Zrotation Yrotation Xrotation
							End Site
							{
								OFFSET 0.000000 0.000000 0.000000
							}
						}
					}
				}
				JOINT LeftShoulder
				{
					OFFSET 0.000000 0.000000 0.000000
					CHANNELS 3 Zrotation Yrotation Xrotation
					JOINT LeftArm
					{
						OFFSET 3.362410 1.200890 -0.311210
						CHANNELS 3 Zrotation Yrotation Xrotation
						JOINT LeftForeArm
						{
							OFFSET 4.983000 -0.000000 -0.000000
							CHANNELS 3 Zrotation Yrotation Xrotation
							JOINT LeftHand
							{
								OFFSET 3.483560 -0.000000 -0.000000
								CHANNELS 3 Zrotation Yrotation Xrotation
								JOINT LeftFingerBase
								{
									OFFSET 0.000000 0.000000 0.000000
									CHANNELS 3 Zrotation Yrotation Xrotation
									JOINT LeftHandIndex1
									{
										OFFSET 0.715260 -0.000000 -0.000000
										CHANNELS 3 Zrotation Yrotation Xrotation
										End Site
										{
											OFFSET 0.000000 0.000000 0.000000
										}
									}
								}
								JOINT LThumb
								{
									OFFSET 0.000000 0.000000 0.000000
									CHANNELS 3 Zrotation Yrotation Xrotation
									End Site
									{
										OFFSET 0.000000 0.000000 0.000000
									}
								}
							}
						}
					}
				}
				JOINT RightShoulder
				{
					OFFSET 0.000000 0.000000 0.000000
					CHANNELS 3 Zrotation Yrotation Xrotation
					JOINT RightArm
					{
						OFFSET -3.136600 1.374050 -0.404650
						CHANNELS 3 Zrotation Yrotation Xrotation
						JOINT RightForeArm
						{
							OFFSET -5.241900 -0.000000 -0.000000
							CHANNELS 3 Zrotation Yrotation Xrotation
							JOINT RightHand
							{
								OFFSET -3.444170 -0.000000 -0.000000
								CHANNELS 3 Zrotation Yrotation Xrotation
								JOINT RightFingerBase
								{
									OFFSET 0.000000 0.000000 0.000000
									CHANNELS 3 Zrotation Yrotation Xrotation
									JOINT RightHandIndex1
									{
										OFFSET -0.622530 -0.000000 -0.000000
										CHANNELS 3 Zrotation Yrotation Xrotation
										End Site
										{
											OFFSET 0.000000 0.000000 0.000000
										}
									}
								}
								JOINT RThumb
								{
									OFFSET 0.000000 0.000000 0.000000
									CHANNELS 3 Zrotation Yrotation Xrotation
									End Site
									{
										OFFSET 0.000000 0.000000 0.000000
									}
								}
							}
						}
					}
				}
			}
		}
	}
}
MOTION
Frames: 4
Frame Time: 0.008333
4.367263 15.914537 -0.012340 33.949185 78.133493 39.562632 -9.146115 2.149469 -0.662258 -16.527605 7.899866 -22.102943 -2.354185 1.827864 46.612038 2.697926 9.127272 -29.745360 -4.460200 0.000000 -32.402700 11.484201 1.713400 0.324405 -0.169411 -9.525733 -45.917466 -0.281954 -4.452559 61.903468 -4.678305 -19.374140 -24.763814 5.021400 -0.000000 -13.071400 -4.264719 -3.562401 -0.783285 -1.169857 -3.316277 -2.337138 -5.165025 -3.335493 3.291979 10.095901 -16.195992 -12.926640 -2.064261 -0.076864 -1.446747 0.000000 0.000000 0.000000 0.088282 21.147740 1.285964 -69.514705 -0.663573 -7.761558 -2.972987 -32.887643 -0.013958 14.494936 -1.377201 -0.186525 -0.173395 0.078466 0.000000 0.000000 0.000000 0.000000 0.000000 0.000000 0.000000 13.337243 -13.231241 0.364149 79.130492 -7.609271 -12.093436 3.360045 21.556615 0.012767 -4.384332 7.515537 -0.299613 0.135939 -0.081478 -0.000000 0.000000 0.000000 0.000000 0.000000 0.000000 0.000000 
4.586853 15.968362 0.051435 33.494843 77.992010 39.153146 -9.184689 2.283542 -0.579300 -16.162257 8.185388 -20.480285 -2.415417 1.695197 44.845995 2.647960 9.014003 -29.219615 -4.326100 0.000000 -33.366200 11.307006 1.717700 0.477115 0.551211 -9.422101 -46.305972 -0.145238 -4.267030 59.822410 -4.767893 -19.388908 -24.538924 4.912100 0.000001 -12.918600 -4.098125 -3.849993 -1.069102 -1.122864 -3.620171 -2.355796 -5.173343 -3.636558 3.371106 10.267086 -16.698973 -13.040185 -2.100851 -0.078046 -1.471846 0.000000 0.000000 0.000000 0.539467 21.037241 1.207967 -68.606309 -0.718150 -9.014651 -2.821735 -36.092179 -0.018126 15.185009 -1.540998 -0.219743 -0.182340 0.094305 0.000000 0.000000 0.000000 0.000000 0.000000 0.000000 0.000000 13.912028 -13.928628 0.363864 79.479645 -8.699946 -12.373523 3.433764 21.061850 0.013062 -3.759352 7.269805 -0.249336 0.133107 -0.075277 -0.000000 0.000000 0.000000 0.000000 0.000000 0.000000 0.000000 
4.806927 16.033174 0.117693 32.782010 77.840784 38.375710 -9.254997 2.417799 -0.521332 -15.657552 8.547758 -18.625386 -2.462173 1.558926 42.847916 2.566093 8.884634 -28.361128 -4.117900 0.000000 -34.454300 11.110422 1.687806 0.577003 1.359235 -9.317354 -46.327227 0.005391 -4.054351 57.488772 -4.826958 -19.295435 -24.178884 4.734000 0.000001 -13.178600 -3.901884 -4.136276 -1.272250 -1.066440 -3.923664 -2.363519 -5.168271 -3.936947 3.430306 10.414243 -17.200824 -13.135831 -2.124042 -0.078295 -1.491906 0.000000 0.000000 0.000000 0.981795 20.891163 1.139285 -67.650151 -0.538135 -10.046074 -2.660132 -39.373476 -0.023058 15.627691 -1.423658 -0.212061 -0.191507 0.110054 0.000000 0.000000 0.000000 0.000000 0.000000 0.000000 0.000000 14.397214 -14.607729 0.364293 79.739617 -9.858951 -12.469922 3.508309 20.779667 0.013335 -3.086933 7.045782 -0.199459 0.130215 -0.069474 -0.000000 0.000000 0.000000 0.000000 0.000000 0.000000 0.000000 
5.027073 16.107686 0.186286 31.798818 77.671122 37.215735 -9.355875 2.553043 -0.489967 -15.014495 8.975337 -16.552383 -2.489281 1.424988 40.656144 2.455706 8.753242 -27.166736 -3.841900 0.000000 -35.722900 10.897258 1.627367 0.621822 2.251911 -9.219901 -45.978935 0.167732 -3.815038 54.910504 -4.854994 -19.105936 -23.683729 4.493300 -0.000000 -13.907100 -3.677701 -4.414555 -1.387579 -1.001546 -4.220146 -2.359685 -5.150100 -4.230217 3.470623 10.529548 -17.693525 -13.207909 -2.133469 -0.077663 -1.505443 0.000000 0.000000 0.000000 1.407509 20.711374 1.078311 -66.632887 -0.163325 -10.879339 -2.491681 -42.641399 -0.028557 15.864955 -1.061077 -0.166280 -0.200656 0.125310 0.000000 0.000000 0.000000 0.000000 0.000000 0.000000 0.000000 14.778240 -15.261303 0.365615 79.931889 -11.066435 -12.428815 3.583692 20.661701 0.013595 -2.390671 6.856759 -0.151675 0.127370 -0.064081 -0.000000 0.000000 0.000000 0.000000 0.000000 0.000000 0.000000 
